<?xml version="1.0" encoding="iso-8859-1"?>
<!-- Generator: Adobe Illustrator 19.0.0, SVG Export Plug-In . SVG Version: 6.00 Build 0)  -->
<svg version="1.1" id="Layer_1" xmlns="http://www.w3.org/2000/svg" xmlns:xlink="http://www.w3.org/1999/xlink" x="0px" y="0px"
	 viewBox="0 0 511.992 511.992" style="enable-background:new 0 0 511.992 511.992;" xml:space="preserve">
<g>
	<polygon style="fill:#DA4453;" points="318.699,230.762 255.997,258.355 193.304,230.762 124.539,386.993 172.976,384.993 
		202.655,421.367 255.997,300.183 309.341,421.367 339.011,384.993 387.448,386.993 	"/>
	<path style="fill:#DA4453;" d="M398.058,246.387l-141.1,18l-123.661-14.219L14.354,304.62l3.438,9.281
		c0.5,1.343,12.703,32.765,61.749,32.765h0.008c40.812,0,95.451-21.859,162.395-64.967l14.054-9.047l14.055,9.047
		c66.943,43.107,121.584,64.967,162.41,64.967l0,0c49.047,0,61.249-31.422,61.749-32.765l3.078-8.312L398.058,246.387z"/>
</g>
<path style="fill:#ED5564;" d="M484.306,116.249c-11.578-17-28.984-25.624-51.703-25.624c-34.904,0-82.482,20.796-141.402,61.827
	c-12.828,8.937-24.758,17.828-35.203,25.937c-10.452-8.109-22.374-17-35.202-25.937C161.867,111.421,114.298,90.625,79.4,90.625
	c-22.734,0-40.132,8.625-51.717,25.624C-4.785,163.936-9.059,240.871,16.8,312.229c2.273,6.265,7.836,9.999,14.891,9.999
	c7.039,0,15.757-3.641,28.968-9.171c27.929-11.672,74.678-31.218,141.802-31.218c15.523,0,31.491,1.077,47.537,3.187
	c1.719,0.359,10.273,0.359,12,0c16.047-2.109,32.016-3.187,47.531-3.187c67.123,0,113.871,19.546,141.809,31.218
	c13.203,5.53,21.938,9.171,28.969,9.171c7.046,0,12.624-3.734,14.89-9.999C521.054,240.871,516.772,163.935,484.306,116.249z"/>
<path style="fill:#FFCE54;" d="M320.012,229.34c0,35.359-28.655,64.014-64.015,64.014c-35.35,0-64.014-28.655-64.014-64.014
	c0-35.358,28.664-64.014,64.014-64.014C291.356,165.326,320.012,193.982,320.012,229.34z"/>
<path style="fill:#F6BB42;" d="M287.997,229.34c0,17.671-14.328,32-32,32c-17.679,0-32.006-14.328-32.006-32s14.328-32,32.006-32
	C273.669,197.341,287.997,211.669,287.997,229.34z"/>
<g>
</g>
<g>
</g>
<g>
</g>
<g>
</g>
<g>
</g>
<g>
</g>
<g>
</g>
<g>
</g>
<g>
</g>
<g>
</g>
<g>
</g>
<g>
</g>
<g>
</g>
<g>
</g>
<g>
</g>
</svg>
